<svg width="441" height="86" viewBox="0 0 441 86" fill="none" xmlns="http://www.w3.org/2000/svg">
    <g clip-path="url(#clip0_17_3)">
        <path d="M65.85 42.96V64.44H21.97V21.48H65.85V42.96C78 42.96 87.82 33.36 87.82 21.48C87.82 9.6 78 0 65.85 0V0.06H0V85.98H65.85C78 85.98 87.82 76.38 87.82 64.5C87.82 52.62 78 42.96 65.85 42.96Z" fill="#FF94C7"/>
        <path d="M279.27 57.91C278.46 58.64 277.08 59.43 275.01 60.16C272.77 61 269.95 61.4 266.49 61.4C262.52 61.4 259.47 60.44 257.46 58.53C255.45 56.62 254.41 53.97 254.41 50.65H280.82V48.17C280.82 46.54 280.65 44.79 280.24 43.11C279.84 41.37 279.09 39.79 278.05 38.33C276.96 36.87 275.4 35.69 273.33 34.79C271.26 33.89 268.5 33.44 265.1 33.44C259.29 33.44 254.86 34.9 251.92 37.88C248.99 40.86 247.49 44.86 247.49 49.92C247.49 52.23 247.78 54.42 248.3 56.39C248.82 58.36 249.74 60.1 251.06 61.57C252.38 63.03 254.23 64.21 256.58 65.06C258.94 65.9 261.87 66.3 265.5 66.3C269.13 66.3 272.29 66.02 274.82 65.4C277.35 64.78 279.14 64.22 280.17 63.6L279.48 59.16L279.25 57.92L279.27 57.91ZM257.98 40.19C259.76 38.78 262.12 38.11 265.12 38.11C267.48 38.11 269.26 38.56 270.53 39.4C271.8 40.3 272.72 41.31 273.23 42.61C273.75 43.85 273.98 45.09 273.98 46.27H257.23C256.48 46.27 255.96 46.16 255.73 45.93C255.44 45.71 255.33 45.37 255.33 44.92C255.33 43.18 256.19 41.6 257.98 40.19Z" fill="#034068"/>
        <path d="M436.18 36.93C433.55 34.55 429.42 33.35 423.79 33.35C419.96 33.35 416.71 33.65 414.04 34.26C411.36 34.87 409.37 35.46 408.07 36.05L409.07 42.19C409.55 41.82 410.31 41.36 411.38 40.81C412.73 40.11 414.44 39.48 416.51 38.92C418.58 38.36 420.83 38.08 423.26 38.08C426.9 38.08 429.47 38.92 430.96 40.61C432.44 42.3 433.21 45.14 433.25 49.15C432.26 48.47 430.67 47.83 428.49 47.23C426.31 46.63 423.66 46.32 420.56 46.32C415.74 46.32 412.12 47.21 409.69 48.99C407.26 50.77 406.05 53.25 406.05 56.45C406.05 59.65 407.08 62.09 409.15 63.77C411.22 65.46 414.62 66.3 419.34 66.3C422.4 66.3 425.11 65.96 427.47 65.29C429.83 64.61 431.76 63.6 433.24 62.25L433.37 62.32L433.24 63.6V65.62H440.11V59.57H440.12V48.07C440.12 43.03 438.8 39.32 436.17 36.93H436.18ZM430.11 59.95C428.02 60.99 425.17 61.5 421.57 61.5C418.51 61.5 416.29 61.1 414.92 60.29C413.55 59.48 412.86 58.2 412.86 56.44C412.86 54.6 413.59 53.23 415.05 52.36C416.51 51.48 418.93 51.04 422.31 51.04C425.86 51.04 428.58 51.49 430.44 52.39C432.31 53.29 433.24 54.46 433.24 55.9C433.24 57.57 432.19 58.92 430.1 59.95H430.11Z" fill="#034068"/>
        <path d="M367.46 36.93C364.83 34.55 360.7 33.35 355.07 33.35C351.24 33.35 347.99 33.65 345.32 34.26C342.64 34.87 340.65 35.46 339.35 36.05L340.35 42.19C340.83 41.82 341.59 41.36 342.66 40.81C344.01 40.11 345.72 39.48 347.79 38.92C349.86 38.36 352.11 38.08 354.54 38.08C358.18 38.08 360.75 38.92 362.24 40.61C363.72 42.3 364.49 45.14 364.53 49.15C363.54 48.47 361.95 47.83 359.77 47.23C357.59 46.63 354.94 46.32 351.84 46.32C347.02 46.32 343.4 47.21 340.97 48.99C338.54 50.77 337.33 53.25 337.33 56.45C337.33 59.65 338.36 62.09 340.43 63.77C342.5 65.46 345.9 66.3 350.62 66.3C353.68 66.3 356.39 65.96 358.75 65.29C361.11 64.61 363.04 63.6 364.52 62.25L364.65 62.32L364.52 63.6V65.62H371.39V59.57H371.4V48.07C371.4 43.03 370.08 39.32 367.45 36.93H367.46ZM361.39 59.95C359.3 60.99 356.45 61.5 352.85 61.5C349.79 61.5 347.57 61.1 346.2 60.29C344.83 59.48 344.14 58.2 344.14 56.44C344.14 54.6 344.87 53.23 346.33 52.36C347.79 51.48 350.21 51.04 353.59 51.04C357.14 51.04 359.86 51.49 361.72 52.39C363.59 53.29 364.52 54.46 364.52 55.9C364.52 57.57 363.47 58.92 361.38 59.95H361.39Z" fill="#034068"/>
        <path d="M154.54 31.73C154.63 31.48 154.84 31.33 155.18 31.26C155.39 31.22 155.75 31.19 156.22 31.17V31.12H170.16V27.23L170.13 27.1V25.75H131.42V31.12H140.42V31.15H144.15C145.14 31.15 145.79 31.18 146.11 31.25C146.42 31.32 146.63 31.48 146.72 31.72C146.81 31.97 146.85 32.45 146.85 33.17V66.24H154.41V33.17C154.41 32.45 154.45 31.97 154.54 31.72V31.73Z" fill="#034068"/>
        <path d="M155.82 66.26H155.68C155.77 66.3 155.82 66.31 155.82 66.26Z" fill="#034068"/>
        <path d="M145.57 66.26H145.43C145.43 66.31 145.48 66.3 145.57 66.26Z" fill="#034068"/>
        <path d="M199.56 36.93C196.93 34.55 192.8 33.35 187.17 33.35C183.34 33.35 180.09 33.65 177.42 34.26C174.74 34.87 172.75 35.46 171.45 36.05L172.45 42.19C172.93 41.82 173.69 41.36 174.76 40.81C176.11 40.11 177.82 39.48 179.89 38.92C181.96 38.36 184.21 38.08 186.64 38.08C190.28 38.08 192.85 38.92 194.34 40.61C195.82 42.3 196.59 45.14 196.63 49.15C195.64 48.47 194.05 47.83 191.87 47.23C189.69 46.63 187.04 46.32 183.94 46.32C179.12 46.32 175.5 47.21 173.07 48.99C170.64 50.77 169.43 53.25 169.43 56.45C169.43 59.65 170.46 62.09 172.53 63.77C174.6 65.46 178 66.3 182.72 66.3C185.78 66.3 188.49 65.96 190.85 65.29C193.21 64.61 195.14 63.6 196.62 62.25L196.75 62.32L196.62 63.6V65.62H203.49V59.57H203.5V48.07C203.5 43.03 202.18 39.32 199.55 36.93H199.56ZM193.49 59.95C191.4 60.99 188.55 61.5 184.95 61.5C181.89 61.5 179.67 61.1 178.3 60.29C176.93 59.48 176.24 58.2 176.24 56.44C176.24 54.6 176.97 53.23 178.43 52.36C179.89 51.48 182.31 51.04 185.69 51.04C189.24 51.04 191.96 51.49 193.82 52.39C195.69 53.29 196.62 54.46 196.62 55.9C196.62 57.57 195.57 58.92 193.48 59.95H193.49Z" fill="#034068"/>
        <path d="M323.39 28.63C320.1 26.74 315.36 25.8 309.15 25.8H289.37V66.3H309.15C315.31 66.3 320.04 65.32 323.32 63.36C326.6 61.4 328.8 58.96 329.9 56.04C331 53.12 331.55 49.81 331.55 46.12C331.55 42.2 331.01 38.79 329.93 35.86C328.85 32.94 326.67 30.53 323.38 28.64L323.39 28.63ZM324 46.58C324 51.62 322.75 55.25 320.25 57.48C317.75 59.71 313.65 60.82 307.93 60.82H299.63C298.64 60.82 297.99 60.79 297.67 60.72C297.35 60.65 297.15 60.5 297.06 60.25C296.97 60 296.93 59.52 296.93 58.8V33.22C296.93 32.55 296.97 32.1 297.06 31.87C297.15 31.65 297.35 31.5 297.67 31.43C297.98 31.36 298.64 31.33 299.63 31.33H307.93C312.02 31.33 315.22 31.78 317.51 32.68C319.8 33.58 321.46 35.03 322.47 37.03C323.48 39.03 323.99 41.81 323.99 45.37V46.58H324Z" fill="#034068"/>
        <path d="M402.29 63.05C402.29 62.86 402.2 62.41 402.08 61.83L402.29 63.05Z" fill="#034068"/>
        <path d="M401.13 57.77C400.98 57.95 400.8 58.15 400.57 58.4C399.87 59.17 398.97 59.87 397.87 60.53C396.77 61.18 395.54 61.51 394.19 61.51C392.84 61.51 391.83 61.21 391.15 60.6C390.47 59.99 390.14 58.72 390.14 56.79V38.77H401.64V34.04H390.14V25.06H385.28C385.28 27.45 385.03 29.28 384.54 30.56C384.04 31.84 383.22 32.74 382.08 33.26C380.93 33.78 379.3 34.04 377.19 34.04V38.77H383.27V57.8C383.27 60.82 383.97 62.99 385.36 64.31C386.75 65.64 389 66.3 392.11 66.3C394.22 66.3 396.04 66.06 397.54 65.59C399.05 65.12 400.22 64.6 401.05 64.04C401.88 63.48 402.3 63.15 402.3 63.06L402.09 61.84C401.85 60.72 401.46 59.09 401.14 57.77H401.13Z" fill="#034068"/>
        <path d="M243.14 64.46L242.05 62.99C242.43 63.57 242.8 64.06 243.14 64.46Z" fill="#034068"/>
        <path d="M234.73 64.69C234.64 64.32 234.49 63.89 234.3 63.41L234.69 64.59L234.72 64.69H234.73Z" fill="#034068"/>
        <path d="M243.14 64.46C242.8 64.06 242.43 63.57 242.05 62.99C241.89 62.75 241.72 62.49 241.55 62.21C240.11 59.87 238.83 58 237.7 56.61C236.58 55.22 235.36 54.02 234.05 53.03C232.16 51.64 230.2 50.6 228.18 49.93C229.89 49.21 231.33 48.37 232.5 47.4C233.67 46.43 234.68 45.32 235.54 44.06C236.39 42.8 237.43 41.05 238.64 38.79C238.84 38.43 239.03 38.1 239.22 37.79C239.38 37.57 240.24 35.91 240.94 34.67H231.9L231.2 38.31H231.19C231.15 38.47 231.14 38.62 231.09 38.79C230.32 41.89 229.11 44.21 227.44 45.74C225.77 47.27 223.86 48.03 221.7 48.03C220.71 48.03 220.05 48 219.71 47.93C219.37 47.86 219.16 47.69 219.07 47.42C218.98 47.15 218.94 46.66 218.94 45.93V19.67H212.06V66.24H218.94V54.83C218.94 54.07 218.98 53.57 219.07 53.34C219.16 53.12 219.36 52.97 219.68 52.9C220 52.83 220.67 52.8 221.71 52.8C226.66 52.8 230.57 55.7 233.45 61.51C233.78 62.16 234.03 62.72 234.25 63.25L234.3 63.39C234.49 63.86 234.64 64.3 234.73 64.67L235.27 66.24H244.47L243.14 64.44V64.46Z" fill="#034068"/>
        <path d="M210.83 66.26H210.7C210.7 66.31 210.75 66.3 210.83 66.26Z" fill="#034068"/>
        <path d="M220.28 66.26H220.15C220.23 66.3 220.28 66.31 220.28 66.26Z" fill="#034068"/>
        <path d="M242.02 34.67H242.09C242.09 34.67 242.06 34.66 242.02 34.67Z" fill="#034068"/>
        <path d="M234.25 63.26C234.27 63.32 234.29 63.36 234.31 63.41L234.26 63.26H234.25Z" fill="#034068"/>
        <path d="M242.05 62.99L242.04 62.98L242.05 62.99Z" fill="#034068"/>
        <path d="M245.46 66.26H245.38C245.38 66.26 245.46 66.28 245.46 66.26Z" fill="#034068"/>
    </g>
    <defs>
        <clipPath id="clip0_17_3">
            <rect width="440.13" height="85.98" fill="white"/>
        </clipPath>
    </defs>
</svg>
